<svg width="64" height="64" viewBox="0 0 64 64" fill="none" xmlns="http://www.w3.org/2000/svg">
  <defs>
    <linearGradient id="bg" x1="8" y1="8" x2="56" y2="56" gradientUnits="userSpaceOnUse">
      <stop stop-color="#A11E5E"/>
      <stop offset="1" stop-color="#E95E2A"/>
    </linearGradient>
    <linearGradient id="petal" x1="32" y1="18" x2="32" y2="45" gradientUnits="userSpaceOnUse">
      <stop stop-color="#FFF7ED"/>
      <stop offset="1" stop-color="#FDE7F3"/>
    </linearGradient>
  </defs>
  <rect x="4" y="4" width="56" height="56" rx="16" fill="url(#bg)"/>
  <path d="M32 16C29.8 20.2 29.8 24.4 32 28.6C34.2 24.4 34.2 20.2 32 16Z" fill="url(#petal)"/>
  <path d="M23 23C23.8 27.3 26 30.5 29.6 32.6C29.5 27.8 27.2 24.5 23 23Z" fill="url(#petal)"/>
  <path d="M41 23C36.8 24.5 34.5 27.8 34.4 32.6C38 30.5 40.2 27.3 41 23Z" fill="url(#petal)"/>
  <path d="M19 32C22.9 35.2 27.2 36.2 32 35.1C27.8 32.4 23.5 31.3 19 32Z" fill="url(#petal)"/>
  <path d="M45 32C40.5 31.3 36.2 32.4 32 35.1C36.8 36.2 41.1 35.2 45 32Z" fill="url(#petal)"/>
  <path d="M24 40C27.2 42.9 30 44.2 32 45C34 44.2 36.8 42.9 40 40C35.4 39 28.6 39 24 40Z" fill="url(#petal)"/>
</svg>
